<svg xmlns="http://www.w3.org/2000/svg" viewBox="0 0 48 48.000001"><g transform="translate(0-1004.36)"><path d="m47 1005.36l-24.551 2.934c-11.693 1.397-21.449 9.642-21.449 21.531 0 11.885 9.652 21.535 21.537 21.535 11.889 0 20.13-9.754 21.531-21.447l2.932-24.553m-1.697 1.699l-2.711 22.678c-1.327 11.11-8.975 20.14-20.05 20.14-11.08 0-20.05-8.968-20.05-20.05 0-11.08 9.03-18.729 20.14-20.06l22.678-2.709z" fill="#1000b8" /><g transform="matrix(1.48527 0 0 1.48527-13.11-497.57)" fill="#1066de"><path d="m37.484 1014.88l-13.66 1.51 12.15 12.15zm-2.484 2.484l-1.576 5.781-4.205-4.205z"/><path d="m21.463 1016.85c-5.383 1.5-9.463 5.756-9.463 11.508 0 6.627 5.373 12 12 12 5.752 0 10.01-4.08 11.508-9.463l-8.438-8.436-3.898 9.555 3.898-3.899 3.625 3.625c-1.386 2.672-3.517 4.617-6.695 4.617-4.418 0-8-3.582-8-8 0-4.418 3.737-6.837 8-8l.762-.207z"/></g></g></svg>